<?xml version="1.0" standalone="no"?>
<!DOCTYPE svg PUBLIC "-//W3C//DTD SVG 20010904//EN"
 "http://www.w3.org/TR/2001/REC-SVG-20010904/DTD/svg10.dtd">
<svg version="1.0" xmlns="http://www.w3.org/2000/svg"
 width="1024.000000pt" height="1024.000000pt" viewBox="0 0 1024.000000 1024.000000"
 preserveAspectRatio="xMidYMid meet">

<g transform="translate(0.000000,1024.000000) scale(0.100000,-0.100000)"
fill="#000000" stroke="none">
<path d="M4986 9477 c-24 -14 -57 -48 -86 -90 -26 -38 -63 -84 -81 -103 -19
-19 -77 -91 -129 -160 -357 -468 -857 -1105 -878 -1118 -13 -8 -42 3 -42 15 0
11 70 108 220 304 248 326 272 359 261 363 -7 2 -43 -16 -79 -41 -37 -25 -84
-51 -105 -58 -35 -12 -39 -12 -63 13 -15 14 -36 42 -48 61 -49 82 -138 196
-157 202 -22 7 -88 -2 -104 -14 -5 -5 -44 -18 -85 -31 -183 -55 -175 -51 -174
-95 0 -22 11 -109 23 -194 l23 -154 -29 -23 c-15 -13 -37 -26 -48 -29 -11 -4
-69 -31 -130 -61 -134 -66 -143 -65 -248 31 -39 36 -89 78 -110 92 l-38 26
-107 -73 c-134 -91 -142 -98 -158 -137 -13 -29 -11 -43 20 -155 54 -198 54
-179 -1 -218 -75 -54 -153 -117 -208 -170 -64 -60 -127 -100 -161 -100 -14 0
-58 11 -97 24 -40 13 -103 33 -142 45 -38 12 -92 32 -119 44 -56 25 -43 34
-121 -85 -24 -37 -72 -102 -106 -145 -53 -67 -60 -81 -56 -109 4 -21 47 -86
127 -188 l121 -156 -32 -62 c-18 -35 -40 -71 -48 -81 -9 -11 -36 -60 -61 -110
-46 -93 -80 -129 -121 -129 -50 -1 -180 22 -209 37 -43 22 -93 19 -117 -7 -12
-13 -49 -86 -83 -163 -72 -162 -72 -167 6 -229 54 -44 188 -147 217 -168 14
-11 16 -18 6 -48 -40 -133 -81 -284 -94 -354 -30 -149 -32 -153 -79 -181 -23
-14 -51 -25 -62 -25 -27 0 -162 -30 -207 -46 -20 -8 -56 -14 -78 -14 -47 0
-94 -22 -109 -50 -12 -23 -32 -342 -24 -376 5 -18 42 -34 241 -100 130 -44
241 -83 248 -89 9 -7 14 -79 19 -260 l6 -250 -53 -42 c-31 -26 -82 -53 -127
-69 -82 -29 -157 -92 -145 -123 4 -9 22 -81 40 -160 19 -79 36 -145 39 -148 2
-3 86 -11 186 -18 99 -7 183 -14 185 -17 2 -2 36 -95 74 -207 l70 -204 -19
-28 c-11 -15 -42 -43 -68 -63 -26 -19 -76 -64 -112 -101 l-65 -66 43 -82 c69
-131 146 -257 157 -257 6 0 84 20 173 45 89 25 164 45 166 45 11 0 216 -281
216 -297 0 -10 -9 -31 -20 -48 -11 -16 -20 -37 -20 -45 -1 -8 -22 -43 -49 -78
-51 -67 -111 -172 -111 -194 0 -16 230 -248 246 -248 6 0 91 43 188 96 158 86
179 94 194 82 9 -8 70 -56 135 -107 64 -51 117 -99 117 -107 0 -8 -20 -73 -44
-146 -24 -73 -47 -149 -51 -169 l-7 -36 94 -63 c51 -35 117 -81 146 -103 35
-25 57 -35 65 -30 7 5 76 60 154 121 l142 113 130 -66 c152 -76 139 -45 116
-270 -8 -77 -15 -146 -15 -153 0 -7 15 -19 33 -27 49 -22 290 -115 299 -115 4
0 64 65 134 145 70 80 134 145 143 145 9 0 77 -13 151 -29 74 -16 203 -39 285
-51 83 -12 153 -24 157 -28 3 -4 25 -106 48 -227 23 -121 46 -228 51 -237 9
-16 30 -18 223 -18 190 0 215 2 228 18 13 14 46 141 103 395 7 33 17 63 22 68
5 5 69 17 143 28 74 11 196 34 270 51 74 16 142 30 151 30 9 0 58 -51 109
-112 51 -62 109 -130 128 -150 34 -35 36 -36 62 -23 38 20 257 105 269 105 24
0 29 42 23 203 -7 173 -7 187 9 187 5 0 66 27 136 60 69 33 129 60 134 60 4 0
72 -50 151 -111 78 -61 148 -113 154 -116 10 -4 195 116 273 177 l32 25 -14
60 c-8 33 -33 113 -55 179 -22 65 -38 123 -36 130 5 10 43 43 186 161 l57 46
88 -47 c48 -25 130 -69 181 -97 l94 -50 123 123 124 123 -31 61 c-17 34 -49
88 -73 121 -43 62 -95 166 -95 193 0 13 122 190 183 265 l22 27 168 -45 c93
-25 175 -45 182 -45 14 0 195 310 195 333 0 28 -62 96 -143 155 -46 34 -93 75
-104 90 l-20 27 53 140 c30 77 63 168 75 202 11 35 21 63 22 63 1 1 85 7 186
15 101 8 188 18 193 23 5 5 28 78 49 161 l40 152 -24 33 c-14 17 -45 40 -69
50 -84 35 -114 50 -173 92 l-60 41 1 209 c3 340 -3 302 47 323 23 10 134 49
247 86 113 37 211 73 219 79 10 8 12 28 7 86 -4 41 -9 124 -12 184 -5 125 -18
151 -83 161 -20 3 -81 18 -136 32 -55 14 -129 29 -164 33 -36 4 -86 18 -111
31 -50 25 -57 40 -76 154 -7 43 -37 162 -79 314 -21 76 -23 97 -13 106 7 7 54
47 103 89 149 129 155 135 155 162 0 13 -16 55 -35 92 -19 37 -49 101 -68 142
-19 41 -41 81 -51 89 -24 20 -133 7 -214 -25 -105 -42 -145 -24 -201 90 -18
37 -58 104 -88 148 -84 123 -85 116 56 298 67 85 122 161 122 170 3 33 -6 47
-78 134 -41 49 -89 111 -105 138 -53 86 -119 100 -228 50 -124 -56 -165 -71
-217 -77 -44 -5 -58 -2 -90 18 -21 14 -45 32 -53 42 -8 10 -65 55 -126 101
-132 99 -152 124 -135 168 7 17 29 82 48 144 45 144 42 171 -25 212 -26 16
-79 52 -118 80 -44 31 -82 50 -99 50 -36 0 -138 -61 -197 -118 -59 -57 -108
-76 -146 -56 -15 8 -32 14 -38 14 -6 0 -29 12 -50 28 -21 15 -52 33 -69 40
-16 8 -47 25 -67 39 -42 28 -44 41 -28 120 23 108 49 287 43 296 -7 12 -69 38
-113 48 -38 8 -88 24 -135 44 -101 43 -121 43 -151 -3 -9 -15 -55 -78 -101
-139 -103 -140 -105 -140 -231 -55 -28 19 -54 33 -57 30 -5 -5 88 -127 290
-382 186 -234 176 -218 155 -239 -19 -20 27 -76 -785 954 -88 111 -181 226
-206 255 -26 28 -66 80 -89 115 -44 66 -89 120 -99 118 -3 0 -24 -10 -45 -22z
m165 -487 c72 -91 208 -264 302 -385 94 -121 210 -269 257 -330 157 -199 217
-287 239 -353 29 -85 36 -217 18 -312 -16 -76 -68 -255 -79 -265 -3 -3 -24 10
-48 30 -23 19 -45 33 -49 30 -4 -2 1 -45 12 -96 16 -74 17 -95 7 -114 -7 -12
-73 -85 -146 -161 l-135 -138 -62 62 c-34 34 -67 62 -73 62 -5 0 -80 -69 -166
-152 -86 -84 -165 -162 -177 -172 -21 -19 -21 -18 -201 160 l-180 178 -53 -50
c-28 -28 -59 -56 -68 -62 -14 -10 -40 14 -178 169 -143 159 -165 179 -179 167
-9 -7 -50 -44 -90 -83 -40 -38 -77 -71 -81 -73 -12 -4 -275 285 -305 336 -8
14 -12 9 183 277 149 206 221 301 421 560 64 83 206 267 315 410 279 364 368
476 376 473 4 -2 67 -77 140 -168z m1250 -896 c84 -105 133 -174 127 -179 -5
-5 -159 187 -200 249 -28 41 -39 79 -12 40 8 -11 46 -61 85 -110z m-261 -336
c232 -253 390 -461 390 -513 0 -41 -41 -75 -91 -75 -36 0 -48 6 -80 40 -40 42
-56 91 -44 137 5 23 4 25 -9 14 -26 -22 -56 -95 -56 -137 1 -84 77 -160 165
-164 l40 -2 -35 -15 c-75 -33 -215 6 -300 83 -94 85 -110 184 -64 404 25 120
28 216 8 283 -9 31 8 18 76 -55z m657 21 c40 -15 91 -67 104 -106 13 -42 3
-105 -22 -137 -24 -31 -109 -60 -149 -51 -17 4 -44 18 -61 32 -87 74 -77 198
21 250 48 26 66 28 107 12z m-3536 -168 c8 -39 16 -48 50 -56 21 -5 29 -1 43
19 17 27 45 33 76 16 15 -8 17 -15 10 -41 -11 -38 -8 -44 31 -64 26 -14 32
-14 58 -1 28 15 30 14 45 -9 20 -31 20 -34 -5 -61 -19 -20 -20 -27 -11 -51 15
-39 23 -107 22 -176 -1 -32 3 -64 9 -70 15 -18 17 -130 3 -135 -30 -10 -54
-40 -56 -72 -2 -19 -4 -42 -5 -50 -1 -12 -10 -15 -36 -12 -40 5 -85 -19 -85
-44 0 -11 -5 -14 -17 -10 -9 4 -20 1 -24 -5 -4 -7 -16 -14 -26 -15 -67 -10
-85 -17 -105 -44 -12 -17 -25 -30 -29 -30 -4 0 -21 14 -39 30 -36 34 -88 40
-114 14 -9 -8 -20 -13 -25 -9 -5 3 -12 1 -16 -5 -13 -21 -25 -9 -25 24 0 26
-7 41 -31 60 -35 30 -42 31 -59 11 -18 -22 -42 -18 -63 11 -18 24 -18 26 -2
44 31 35 -6 92 -48 73 -19 -9 -27 -7 -47 14 l-24 25 32 30 c41 36 41 71 0 76
-16 2 -36 15 -48 31 l-20 28 45 24 c57 30 67 56 31 84 -25 20 -32 47 -20 79 4
11 19 16 44 16 29 0 41 6 54 24 14 23 14 27 -1 55 -17 29 -17 30 6 55 29 30
49 33 67 9 12 -17 15 -17 51 2 34 18 38 24 35 55 -2 30 3 38 28 52 29 17 29
17 58 -19 26 -33 31 -35 58 -26 20 6 32 19 38 41 10 32 25 41 61 37 13 -1 22
-12 26 -34z m3979 -197 c93 -30 179 -119 196 -201 4 -23 2 -32 -11 -37 -22 -8
-35 3 -71 60 -33 52 -93 96 -157 113 -67 19 -118 1 -188 -66 l-58 -55 -20 41
c-29 55 -26 76 12 104 83 63 188 77 297 41z m-56 -226 c12 -20 -16 -58 -44
-58 -35 0 -53 43 -28 68 17 17 58 11 72 -10z m-436 -52 c58 -30 65 -93 17
-142 -40 -40 -117 -27 -145 25 -16 30 7 89 43 111 38 24 49 24 85 6z m828
-124 c46 -23 221 -202 314 -319 83 -104 186 -296 238 -443 45 -126 99 -339
105 -411 2 -25 8 -52 12 -60 5 -8 4 -11 0 -6 -5 4 -17 -1 -27 -10 -14 -12 -21
-14 -26 -6 -4 7 -21 14 -37 17 -16 3 -33 12 -38 21 -11 20 -27 10 -27 -16 0
-11 -4 -17 -10 -14 -6 3 -10 51 -10 108 -1 66 -6 116 -16 142 -28 74 -56 190
-57 237 -2 31 -9 54 -23 70 -22 25 -74 140 -74 164 0 8 -4 12 -10 9 -5 -3 -11
0 -11 7 -1 7 -2 18 -3 23 -2 20 -69 104 -78 99 -5 -3 -7 -2 -6 3 7 24 -80 106
-174 165 -15 10 -34 32 -41 50 -29 69 -98 95 -170 64 -73 -30 -87 -138 -25
-199 26 -27 34 -29 84 -25 l54 5 12 -39 c13 -46 6 -56 -44 -64 -49 -8 -141 20
-183 57 -19 17 -46 55 -61 85 -34 69 -31 139 10 208 62 106 201 140 322 78z
m-5137 -49 c36 -25 80 -30 98 -12 13 13 26 6 77 -38 20 -18 36 -39 36 -47 0
-14 32 -45 78 -76 19 -13 23 -26 27 -95 2 -44 5 -87 7 -95 2 -8 -3 -48 -11
-88 -12 -60 -12 -76 -1 -97 17 -31 0 -55 -40 -55 -34 0 -49 -17 -57 -64 -3
-20 -10 -36 -16 -36 -6 0 -19 -8 -30 -17 -10 -10 -32 -18 -49 -19 -17 -1 -42
-11 -57 -22 -22 -16 -39 -19 -96 -16 -81 3 -181 29 -244 62 -24 13 -51 20 -59
17 -20 -8 -32 12 -32 54 0 19 -7 43 -16 52 -9 10 -19 44 -23 76 -5 52 -8 58
-31 61 -28 4 -47 17 -61 43 -7 14 -1 26 31 58 36 36 54 81 31 81 -5 0 -11 12
-14 28 -6 30 12 55 52 75 14 7 30 22 36 35 6 13 19 22 32 22 17 0 23 6 23 23
0 21 26 53 57 71 7 4 21 1 31 -5 16 -10 28 -9 62 5 24 9 54 26 67 36 27 21 40
18 92 -17z m4522 -26 c46 -30 80 -102 86 -181 9 -102 -28 -175 -106 -216 -47
-24 -211 -71 -222 -64 -5 3 -9 15 -9 28 0 20 10 26 77 45 151 44 193 83 193
176 0 63 -17 96 -55 108 -44 14 -75 46 -75 78 0 51 55 64 111 26z m-432 -207
c6 -22 16 -40 22 -40 6 0 74 18 151 41 77 22 142 38 145 36 2 -3 6 -20 10 -40
5 -34 5 -35 -43 -50 -27 -9 -86 -26 -132 -38 -77 -20 -84 -20 -101 -5 -14 13
-23 14 -49 5 -40 -14 -45 -31 -27 -85 20 -59 20 -61 -15 -79 -29 -15 -30 -17
-15 -38 8 -12 15 -31 15 -42 0 -32 -45 -141 -89 -214 -54 -93 -75 -134 -61
-126 7 4 18 -2 27 -14 10 -15 18 -19 27 -12 6 5 30 12 53 14 23 3 47 8 54 13
24 14 69 14 69 -1 0 -7 -5 -17 -11 -21 -6 -3 -22 -30 -35 -59 -13 -32 -38 -65
-60 -82 -380 -295 -452 -382 -934 -1120 -51 -79 -96 -143 -101 -143 -4 0 -19
4 -34 10 l-26 10 70 102 c38 57 110 162 160 233 196 283 230 336 225 348 -2 7
-18 21 -35 31 -26 15 -33 16 -43 5 -137 -153 -172 -198 -318 -399 -17 -25 -45
-58 -61 -75 -33 -33 -77 -99 -77 -114 0 -10 -41 -73 -77 -119 l-18 -22 -59 59
c-53 54 -58 62 -45 77 21 27 344 398 514 591 83 93 204 232 270 308 66 76 157
181 203 233 45 52 82 100 82 106 0 5 -16 26 -35 46 l-36 37 -112 -23 c-62 -12
-157 -32 -212 -44 -131 -27 -292 -58 -384 -74 -65 -11 -78 -17 -111 -53 -31
-32 -52 -43 -107 -57 -37 -10 -97 -26 -133 -36 -108 -30 -170 -42 -184 -37 -7
3 -13 17 -13 30 -1 16 4 24 12 21 6 -3 35 4 64 15 28 12 81 28 119 36 187 42
232 60 232 93 0 46 -76 68 -130 37 -14 -8 -47 -15 -75 -15 -27 0 -70 -9 -94
-20 -24 -11 -58 -20 -76 -20 -76 0 -122 -38 -108 -89 3 -13 0 -22 -8 -25 -8
-2 -48 -11 -90 -21 -60 -14 -76 -21 -73 -34 10 -50 37 -158 45 -178 13 -35
147 -512 174 -618 15 -64 19 -92 11 -97 -6 -5 -36 -7 -67 -6 l-57 2 -50 161
c-50 157 -99 319 -182 600 l-41 140 31 25 c32 27 40 64 18 92 -28 34 -45 28
-92 -32 -52 -66 -342 -346 -483 -466 -153 -131 -391 -344 -518 -465 -130 -124
-214 -198 -343 -303 -69 -56 -85 -65 -101 -56 -35 18 -68 11 -95 -21 -14 -17
-26 -43 -26 -58 0 -26 23 -68 44 -83 7 -5 4 -8 -6 -8 -24 0 -68 57 -68 88 0
43 33 86 112 145 40 30 128 103 194 163 67 60 222 199 345 309 123 110 303
272 399 360 96 88 240 219 320 291 80 72 171 154 202 183 31 29 76 58 100 66
40 13 503 113 763 165 203 40 778 161 930 195 136 30 205 50 205 57 0 2 -21
66 -45 143 -25 76 -41 143 -37 147 15 15 40 -2 51 -33 10 -30 18 -33 71 -23
34 7 33 3 17 87 -3 13 66 35 79 25 6 -4 16 -26 23 -48z m-2789 -86 c61 -10
212 -19 425 -24 182 -5 342 -12 357 -17 32 -9 39 -26 13 -31 -9 -2 -30 -16
-44 -31 -15 -16 -48 -33 -75 -40 -26 -6 -66 -24 -89 -38 -35 -23 -58 -28 -142
-33 -68 -5 -128 -16 -188 -36 l-88 -28 -112 36 c-62 20 -136 44 -165 53 -80
25 -107 53 -107 110 0 39 5 51 28 71 33 28 57 29 187 8z m-500 -168 c8 -2 -9
-4 -37 -5 -29 0 -53 3 -53 7 0 7 52 6 90 -2z m4409 -14 c77 -47 104 -93 102
-171 -1 -69 -15 -83 -86 -91 -30 -3 -55 -5 -55 -4 0 1 7 15 15 30 22 43 18 78
-12 116 -15 18 -32 36 -38 40 -14 10 -72 10 -77 0 -1 -4 -21 -17 -43 -28 -34
-18 -41 -27 -47 -65 -4 -24 -5 -52 -2 -61 4 -15 -1 -18 -31 -18 -52 0 -73 15
-85 61 -18 67 14 141 78 181 62 38 226 45 281 10z m-3257 -272 c15 -41 27 -71
27 -66 1 5 4 6 8 3 8 -9 -56 -77 -73 -77 -11 0 -64 168 -64 204 0 14 7 17 38
14 36 -3 37 -4 64 -78z m-494 -186 c26 -5 32 -11 32 -33 0 -14 3 -50 6 -78 5
-35 3 -53 -4 -53 -6 0 -47 34 -91 76 l-81 76 0 61 0 61 53 -52 c32 -32 64 -54
85 -58z m-683 47 c181 -40 345 -113 490 -216 136 -97 170 -136 135 -155 -17
-9 -34 -1 -112 56 -373 267 -836 334 -1265 183 -215 -76 -425 -215 -568 -376
-42 -48 -42 -48 -69 -28 -18 14 -18 15 -1 42 53 81 201 212 345 305 111 73
165 99 286 141 85 29 140 42 304 71 66 12 368 -3 455 -23z m-1192 -2 c32 -8
37 -14 37 -38 0 -30 -34 -61 -65 -61 -22 0 -85 49 -85 66 0 16 38 44 60 44 8
0 32 -5 53 -11z m5457 -38 c133 -27 239 -65 353 -123 99 -51 111 -65 85 -101
-12 -16 -20 -13 -102 28 -179 89 -383 142 -599 152 -70 3 -130 10 -133 15 -3
5 -3 21 1 35 l6 26 147 -6 c87 -3 186 -14 242 -26z m-478 -43 c-12 -12 -42 -4
-42 11 0 12 44 19 49 8 2 -5 -1 -13 -7 -19z m-251 12 c29 -16 44 -52 89 -220
23 -85 68 -245 100 -355 67 -227 208 -738 222 -804 9 -40 8 -46 -15 -69 -33
-32 -51 -20 -66 46 -17 70 -46 173 -85 302 -20 63 -36 121 -36 128 0 12 -30
82 -70 162 -10 19 -20 51 -24 70 -3 19 -12 49 -20 65 -21 45 -54 154 -62 205
-4 25 -10 50 -15 55 -9 13 -54 154 -64 205 -12 57 -37 99 -67 112 -36 16 -36
43 -1 80 29 30 77 37 114 18z m-3681 -170 c116 -14 285 -62 373 -106 76 -38
211 -125 262 -168 l30 -26 -32 -30 -31 -30 -110 74 c-122 81 -243 136 -372
169 -122 31 -394 31 -527 0 -264 -62 -492 -211 -659 -431 -197 -262 -275 -606
-210 -928 39 -189 111 -327 263 -502 21 -23 38 -50 38 -60 0 -10 7 -16 17 -16
11 1 18 -8 20 -27 3 -16 1 -29 -4 -29 -4 0 -8 5 -8 10 0 6 -8 10 -18 10 -10 0
-43 25 -74 55 -92 91 -193 256 -246 405 -11 30 -27 73 -35 95 -26 68 -47 224
-47 340 0 168 30 323 93 472 l30 73 -69 64 c-65 60 -68 65 -56 87 36 67 35 67
105 5 35 -31 68 -56 73 -56 5 1 27 26 49 57 59 83 190 212 275 272 255 180
564 258 870 221z m2342 -37 c36 -34 37 -75 3 -108 -36 -37 -86 -34 -120 7 -31
37 -28 71 11 106 34 30 72 28 106 -5z m1918 2 c487 -80 877 -406 1031 -865 89
-266 72 -605 -46 -897 -136 -337 -438 -630 -777 -754 -253 -93 -553 -97 -810
-10 -320 108 -611 360 -763 661 -101 202 -138 362 -138 600 0 182 12 258 64
408 109 311 358 592 658 742 34 17 65 29 68 26 8 -8 55 -165 60 -201 4 -28 1
-32 -44 -54 -78 -38 -163 -103 -248 -192 -151 -157 -218 -285 -267 -509 -17
-79 -19 -117 -15 -230 10 -279 92 -457 306 -670 171 -169 335 -250 577 -287
99 -14 130 -15 222 -5 192 21 358 83 491 181 77 58 214 196 259 263 52 76 110
200 137 293 23 82 57 335 49 373 -2 9 -11 58 -20 107 -56 303 -264 563 -560
701 -139 65 -245 87 -426 88 l-147 1 -30 93 c-17 51 -31 102 -31 112 0 19 3
20 90 33 63 10 224 6 310 -8z m-2951 -122 c1 -18 -6 -23 -34 -29 -19 -3 -42
-3 -52 0 -14 6 -9 14 28 52 42 43 44 44 51 22 3 -13 6 -33 7 -45z m949 -174
c55 -19 80 -90 49 -134 -11 -14 -22 -17 -54 -12 -53 9 -101 34 -108 57 -9 27
15 72 45 87 31 16 30 15 68 2z m2078 -177 c-8 -52 -90 -280 -132 -369 -36 -75
-61 -97 -51 -44 5 26 118 336 153 419 19 46 38 42 30 -6z m-2268 -8 c28 -31
28 -64 1 -98 -42 -53 -139 -21 -139 46 0 83 83 114 138 52z m1576 -31 c13 -27
45 -97 70 -156 44 -104 57 -155 36 -142 -16 10 -160 304 -160 326 0 35 29 19
54 -28z m929 18 c-3 -24 -184 -293 -201 -299 -34 -11 -2 53 115 231 61 93 91
117 86 68z m-3608 -136 c57 -118 92 -236 102 -351 6 -77 0 -89 -40 -78 -27 6
-35 30 -57 149 -18 97 -38 153 -98 274 l-57 113 30 24 30 24 18 -23 c10 -12
42 -71 72 -132z m-1165 68 c75 -76 220 -244 220 -257 0 -6 -18 -24 -40 -40
-22 -17 -40 -33 -40 -38 0 -24 -31 5 -139 132 -66 76 -128 151 -138 166 -17
27 -17 27 17 55 19 16 43 29 53 29 11 0 41 -21 67 -47z m415 7 c3 -5 15 -10
25 -10 34 0 33 -22 -2 -57 l-35 -35 -41 50 c-23 27 -39 52 -35 56 10 10 81 7
88 -4z m-1612 -139 c-62 -143 -96 -315 -96 -496 0 -133 8 -198 45 -343 20 -81
20 -83 2 -97 -11 -8 -22 -15 -26 -15 -12 0 -47 106 -70 212 -18 82 -22 134
-22 258 0 214 27 354 100 519 l24 54 30 -28 c29 -28 29 -28 13 -64z m2164 36
c21 -30 61 -121 77 -174 l7 -23 -192 0 -192 0 63 58 c75 67 202 172 210 172 3
0 15 -15 27 -33z m-1173 -75 c40 -42 109 -117 152 -166 l79 -89 -25 -16 c-127
-83 -170 -146 -179 -264 l-6 -80 -135 155 c-74 85 -147 170 -162 187 -26 31
-31 33 -85 29 -76 -4 -78 11 -13 81 l51 54 26 -24 c15 -13 40 -37 55 -53 19
-19 35 -27 48 -23 16 4 20 0 20 -20 0 -25 49 -83 70 -83 6 0 24 14 39 31 35
37 31 60 -15 97 -50 40 -128 157 -117 177 15 25 104 95 114 89 5 -3 43 -40 83
-82z m3935 -134 c228 -149 293 -198 262 -198 -34 0 -415 239 -419 263 -6 32
30 17 157 -65z m1174 68 c3 -8 -2 -21 -11 -29 -24 -20 -201 -126 -305 -182
-87 -47 -129 -54 -73 -12 57 44 361 237 372 237 7 0 14 -6 17 -14z m-2866
-210 c98 -26 193 -117 228 -217 17 -48 20 -129 5 -129 -29 0 -82 39 -150 110
-58 61 -84 81 -117 90 -47 12 -125 5 -163 -15 -60 -31 -110 -110 -110 -173 0
-89 44 -158 125 -198 49 -24 64 -26 120 -21 84 8 122 -5 123 -42 1 -33 -37
-56 -113 -70 -134 -25 -280 45 -352 169 -22 37 -53 146 -53 186 l0 24 -403 0
c-490 0 -918 -10 -911 -22 3 -4 14 -8 25 -8 11 0 18 -4 14 -9 -3 -5 5 -12 17
-14 13 -2 -6 -5 -42 -6 -36 -2 -101 -5 -145 -7 l-80 -4 32 19 c18 11 35 31 38
44 4 14 27 44 51 68 l45 44 694 3 695 3 15 28 c8 16 37 49 66 75 85 77 221
105 346 72z m-1005 -23 c10 -9 18 -20 18 -25 0 -4 -128 -8 -285 -8 -168 0
-285 4 -285 9 0 5 10 18 23 28 21 16 44 18 268 15 206 -3 247 -6 261 -19z
m-1568 -80 c13 -16 54 -64 92 -108 195 -226 364 -432 364 -444 0 -3 -80 -6
-178 -7 -195 -1 -356 -24 -482 -70 -37 -13 -72 -24 -78 -24 -14 0 -93 128
-133 215 -33 74 -90 281 -82 301 2 6 50 28 106 47 126 44 349 116 359 117 5 0
19 -12 32 -27z m4926 -33 c49 -96 -4 -208 -111 -235 -99 -25 -225 98 -190 185
l10 25 1 -25 c2 -72 63 -142 136 -156 42 -8 103 24 128 66 18 32 19 94 0 158
-10 35 4 26 26 -18z m-765 -20 c4 -6 56 -10 123 -10 129 0 162 -6 162 -26 0
-12 -47 -14 -270 -14 l-270 0 0 25 c0 23 2 24 83 28 45 1 101 4 124 5 23 1 45
-2 48 -8z m1515 -25 l0 -25 -240 0 c-205 0 -240 2 -240 15 0 24 35 27 358 33
l122 2 0 -25z m-4532 -159 c3 -3 -30 -5 -74 -5 -58 1 -71 3 -49 9 31 8 113 5
123 -4z m3182 -10 c0 -19 -333 -176 -375 -176 -31 0 -9 25 45 53 60 30 310
136 323 137 4 0 7 -6 7 -14z m1185 -94 c112 -47 125 -54 125 -69 0 -7 -6 -13
-13 -13 -24 0 -337 131 -364 152 -7 6 -10 14 -7 19 5 8 131 -35 259 -89z
m-370 9 c106 -76 355 -273 355 -281 0 -4 -6 -13 -14 -19 -12 -10 -44 12 -173
115 -224 181 -263 215 -263 231 0 17 23 6 95 -46z m-2347 -22 c133 -66 150
-72 240 -83 l97 -11 -3 -30 c-7 -58 -26 -65 -158 -55 -81 6 -94 10 -146 45
-32 21 -58 44 -58 51 0 7 -29 33 -64 58 -35 25 -66 53 -70 62 -6 16 0 34 12
34 4 0 71 -32 150 -71z m1732 62 c0 -5 -26 -31 -57 -58 -79 -68 -380 -293
-392 -293 -5 0 -11 7 -14 15 -7 18 55 71 218 187 214 151 245 170 245 149z m9
-371 c-81 -159 -120 -226 -133 -228 -15 -3 -18 0 -13 20 8 29 202 403 230 443
19 27 22 28 26 10 2 -11 -46 -117 -110 -245z m-2800 215 c31 -7 33 -9 27 -38
-9 -44 -80 -180 -134 -257 -51 -71 -146 -169 -206 -212 -21 -15 -68 -54 -104
-85 -120 -106 -266 -174 -456 -213 -116 -24 -172 -25 -183 -6 -6 10 -43 16
-133 21 -69 4 -129 10 -135 13 -5 3 -29 9 -52 12 -35 6 -41 4 -32 -6 14 -17
-11 -29 -44 -21 -85 21 -110 30 -160 56 -30 16 -53 32 -50 35 4 3 -5 6 -20 6
-14 0 -32 8 -39 18 -7 9 -26 23 -42 30 -27 12 -27 14 -11 26 16 12 15 13 -14
14 -31 1 -101 36 -101 52 0 12 28 20 45 14 8 -4 15 -10 15 -15 0 -5 15 -15 33
-24 32 -15 50 -25 97 -55 14 -9 61 -24 105 -34 44 -9 125 -26 180 -38 197 -41
427 -27 618 38 290 99 562 341 683 609 25 54 44 76 63 71 9 -3 31 -8 50 -11z
m1585 -127 c97 -295 184 -444 370 -636 l81 -83 -57 -54 c-62 -60 -90 -68 -129
-36 -20 17 -22 22 -11 38 6 10 17 28 24 41 24 47 -34 107 -105 107 -34 0 -45
-6 -73 -39 -19 -22 -34 -47 -34 -56 0 -9 -12 -22 -27 -29 -26 -12 -30 -11 -56
21 -32 38 -32 69 1 83 25 11 27 33 8 86 l-12 36 48 17 c52 18 56 28 34 81 -24
57 -69 69 -135 35 -28 -14 -40 -27 -44 -50 -4 -16 -10 -30 -14 -30 -12 1 -63
71 -63 87 0 7 19 30 41 52 l41 39 -7 70 c-6 61 -4 77 19 132 l25 63 -24 29
c-21 25 -23 33 -14 51 18 36 54 87 60 87 4 0 28 -64 53 -142z m1589 103 c18
-44 114 -394 119 -430 4 -35 -20 -38 -33 -4 -23 61 -119 418 -119 445 0 40 15
35 33 -11z m363 -208 c64 -82 75 -107 51 -116 -19 -7 -200 240 -192 262 8 18
32 -7 141 -146z m-508 -111 c-2 -105 -7 -194 -11 -198 -22 -22 -28 30 -23 191
6 177 12 223 28 207 6 -6 8 -89 6 -200z m-3733 157 c22 -6 44 -17 48 -25 4 -8
13 -14 19 -14 5 0 33 -12 61 -26 29 -14 64 -26 80 -26 15 -1 30 -5 33 -10 3
-4 14 -8 25 -8 22 0 25 -13 5 -29 -11 -9 -29 -4 -82 23 -38 19 -96 47 -129 62
-69 32 -125 64 -110 64 6 0 28 -5 50 -11z m-445 -45 c158 -27 282 -71 522
-189 32 -15 55 -32 52 -37 -17 -28 -234 -110 -374 -141 -69 -15 -127 -21 -215
-20 -252 2 -443 59 -621 185 -76 53 -154 122 -154 135 0 20 213 70 365 87 74
8 329 -4 425 -20z m-1196 -51 c36 -76 150 -235 231 -320 89 -95 220 -195 326
-248 89 -45 251 -101 357 -122 159 -33 627 -20 1055 28 100 11 139 27 220 94
83 67 114 77 253 83 133 5 162 -2 269 -71 l50 -32 -55 -6 c-30 -4 -120 -10
-200 -14 -172 -9 -224 -25 -235 -73 -7 -36 6 -66 39 -87 20 -13 39 -13 172 0
82 8 158 15 169 15 33 0 -51 -77 -122 -112 -57 -28 -69 -30 -135 -26 -53 4
-88 12 -127 33 -69 34 -123 54 -185 66 -47 9 -147 4 -696 -31 -436 -28 -608
-33 -672 -21 -219 43 -424 186 -561 393 -110 165 -231 445 -205 475 18 22 34
15 52 -24z m2830 -49 c9 -8 16 -20 16 -25 0 -18 40 -49 64 -49 14 0 37 -10 52
-23 34 -30 26 -63 -22 -83 -25 -10 -39 -26 -50 -55 -15 -36 -20 -40 -47 -37
-42 4 -55 28 -38 74 13 36 13 39 -13 61 -30 25 -56 29 -73 12 -22 -22 -43 -2
-43 41 0 58 42 100 99 100 23 0 46 -7 55 -16z m450 -394 l18 -51 47 3 c45 3
46 4 73 61 22 45 32 57 46 53 9 -3 29 -8 45 -12 27 -6 27 -6 21 -70 -6 -59 -5
-67 16 -89 32 -34 79 -33 121 2 l32 27 24 -29 c49 -61 48 -66 -40 -126 -11 -7
22 -131 37 -141 6 -4 34 -10 63 -14 50 -6 53 -8 53 -35 l0 -29 -69 0 -68 0 -7
-46 c-3 -26 -6 -67 -6 -91 0 -45 23 -103 40 -103 17 0 11 -36 -9 -61 -19 -24
-20 -24 -49 -6 -55 32 -121 17 -147 -33 -9 -17 -20 -28 -25 -25 -5 3 -11 1
-15 -5 -4 -7 -13 -6 -27 1 -13 7 -45 9 -87 5 -36 -4 -61 -3 -56 1 15 11 16 53
2 53 -7 0 -23 3 -37 6 -20 4 -22 3 -10 -5 11 -8 3 -11 -34 -11 -42 0 -47 -2
-33 -12 18 -15 35 -132 20 -141 -6 -4 -27 -2 -47 4 -35 10 -37 13 -32 37 21
87 19 108 -9 130 -35 27 -76 28 -100 2 -25 -27 -39 -25 -69 11 -34 40 -33 51
10 84 31 24 35 32 31 59 -3 18 -12 49 -21 69 -14 36 -17 37 -66 37 l-51 0 3
53 3 52 48 6 c54 6 60 12 84 88 l17 53 -37 34 c-20 19 -37 39 -37 45 0 20 53
74 68 71 8 -2 28 -13 43 -24 28 -21 29 -21 69 -3 45 20 44 18 44 99 1 58 1 59
36 71 43 15 51 9 74 -55z m1419 -321 c78 -39 164 -79 192 -90 72 -27 221 -66
285 -74 30 -4 84 -21 119 -38 54 -26 78 -32 155 -35 64 -3 111 1 155 12 40 10
105 16 180 16 112 0 119 1 141 25 13 14 27 25 32 25 4 0 8 -26 8 -59 l0 -58
-172 4 c-313 7 -831 33 -948 47 -63 8 -158 18 -210 21 l-95 7 -45 -37 c-25
-20 -110 -99 -190 -174 l-145 -138 -75 -11 c-41 -6 -103 -19 -137 -28 -34 -10
-66 -15 -70 -10 -4 4 60 73 142 154 225 220 529 512 533 512 1 0 66 -32 145
-71z m-3097 -216 c104 -35 202 -179 191 -281 -8 -70 -55 -150 -118 -202 -31
-25 -84 -77 -118 -117 -34 -40 -83 -85 -109 -100 -42 -25 -57 -28 -137 -28
-74 0 -98 4 -131 22 -92 49 -156 152 -156 251 0 82 30 140 108 208 35 31 88
86 118 124 103 127 220 168 352 123z m753 -50 c25 -14 144 -91 264 -170 l217
-145 -32 -41 c-45 -58 -67 -75 -112 -89 -35 -11 -43 -9 -90 13 -28 14 -73 37
-101 50 -27 13 -50 29 -50 36 0 7 19 32 43 57 23 24 42 47 42 50 0 6 -96 78
-127 95 -21 11 -28 5 -95 -76 -40 -47 -126 -149 -191 -225 l-118 -138 -69 47
c-39 27 -70 52 -70 57 0 4 44 58 98 120 53 61 131 152 172 201 84 101 160 185
168 185 3 0 26 -12 51 -27z m-1537 -82 c10 -8 39 -20 65 -26 l48 -12 -88 -57
c-123 -79 -117 -79 -117 -8 0 32 3 80 6 105 l7 47 31 -18 c17 -9 39 -23 48
-31z m3946 -106 c22 -31 48 -51 95 -73 36 -17 68 -36 72 -42 3 -6 -3 -35 -14
-66 -13 -32 -21 -79 -21 -113 l0 -59 -55 -22 c-31 -12 -74 -36 -96 -52 l-40
-29 -51 32 c-36 23 -66 34 -104 37 l-54 4 0 81 c0 62 -5 90 -22 123 -26 53
-21 61 65 106 32 18 75 51 94 74 28 34 42 42 68 42 27 0 38 -7 63 -43z m487
-15 c140 -22 160 -38 362 -280 96 -114 107 -134 94 -158 -10 -19 -339 -337
-424 -410 -58 -50 -112 -66 -191 -57 -88 10 -159 40 -219 95 -57 52 -175 215
-164 227 10 9 105 -31 196 -84 93 -53 116 -55 108 -13 -7 34 -1 37 30 15 20
-14 24 -13 52 17 36 38 39 58 11 83 -44 40 -11 61 40 25 l28 -20 36 36 c42 42
43 52 15 88 -34 44 -4 64 38 24 l23 -22 35 34 c24 23 35 43 35 62 0 26 2 28
20 18 18 -10 20 -8 20 27 0 56 -37 112 -105 159 -74 52 -155 126 -155 142 0 8
9 10 23 8 12 -3 54 -10 92 -16z m529 -95 c-15 -20 -40 -45 -56 -56 -34 -24
-43 -20 -89 48 l-30 43 101 0 101 0 -27 -35z m-1657 -165 c167 -39 297 -175
323 -337 22 -132 -33 -308 -119 -386 -119 -107 -253 -139 -415 -97 -304 78
-406 469 -182 702 95 99 260 149 393 118z m-1619 -56 c17 -31 32 -62 32 -71 0
-13 -58 -103 -67 -103 -10 0 -123 81 -123 88 0 10 110 142 118 142 4 0 22 -25
40 -56z m841 0 c73 -83 43 -128 -52 -79 -67 35 -77 44 -77 65 0 21 46 59 72
60 9 0 35 -21 57 -46z m-1363 -195 c90 -56 164 -104 164 -108 0 -4 -13 -20
-30 -36 l-30 -29 -57 27 c-32 15 -88 37 -124 50 -81 29 -199 94 -199 110 0 23
79 100 95 93 9 -3 90 -51 181 -107z m1189 -4 c17 -16 25 -35 25 -58 0 -29 -5
-35 -45 -55 -47 -23 -65 -50 -65 -100 0 -20 13 -40 56 -77 49 -45 57 -57 61
-96 9 -76 -28 -123 -108 -142 -33 -8 -109 13 -122 34 -17 27 0 66 32 72 54 11
55 79 4 178 -30 57 -38 83 -38 125 0 47 4 57 35 89 59 62 123 73 165 30z m168
-1 c20 -4 37 -11 37 -17 0 -11 -74 -2 -99 13 -14 8 -13 9 4 10 11 0 37 -3 58
-6z m-601 -31 c9 -8 19 -26 23 -40 5 -21 -6 -38 -72 -112 -44 -47 -136 -153
-205 -236 -69 -82 -140 -163 -157 -179 -27 -26 -33 -28 -44 -14 -17 21 -70 51
-205 118 -65 32 -168 90 -231 129 l-114 70 -57 -6 c-53 -5 -58 -4 -78 22 -29
36 -28 66 3 99 42 46 72 37 258 -74 306 -184 345 -199 420 -166 43 20 57 33
172 166 188 218 208 239 224 243 21 4 42 -2 63 -20z m636 -88 c7 -7 -57 -6
-85 1 -13 4 -23 10 -23 14 0 8 99 -6 108 -15z m1 -105 c12 -7 6 -9 -20 -10
-51 0 -99 11 -99 23 0 11 95 1 119 -13z m-10 -106 c2 -2 -12 -4 -32 -4 -20 0
-39 5 -42 11 -5 7 5 8 32 3 21 -4 40 -8 42 -10z m-24 -100 l40 -14 -40 5 c-22
3 -48 5 -57 5 -10 0 -18 5 -18 10 0 13 27 11 75 -6z m25 -111 c23 -12 21 -13
-25 -7 -62 7 -75 11 -75 23 0 13 68 2 100 -16z m-50 -84 c27 -6 50 -14 50 -19
0 -4 -8 -7 -17 -5 -10 2 -35 7 -55 10 -21 3 -38 10 -38 15 0 12 -2 12 60 -1z
m13 -98 c30 -12 44 -46 27 -66 -23 -28 -100 -12 -100 20 0 14 34 55 44 55 3 0
16 -4 29 -9z"/>
<path d="M6710 7668 c-35 -38 -21 -82 33 -101 19 -7 56 8 69 27 16 23 8 65
-14 80 -31 22 -64 20 -88 -6z"/>
<path d="M3086 7435 c-50 -19 -118 -71 -146 -112 -99 -144 -45 -348 114 -431
71 -37 189 -38 256 -3 73 38 114 76 144 132 79 145 19 327 -133 401 -58 28
-177 35 -235 13z"/>
<path d="M2283 6824 c-57 -21 -127 -84 -154 -142 -18 -35 -23 -64 -23 -117 0
-87 27 -148 89 -203 108 -95 255 -94 364 4 62 56 93 126 93 209 -1 75 -18 119
-69 175 -73 82 -193 111 -300 74z m190 -130 c41 -27 77 -90 77 -134 0 -44 -36
-107 -77 -134 -56 -36 -102 -42 -156 -18 -144 64 -138 254 10 308 48 17 97 10
146 -22z"/>
<path d="M4315 6540 c3 -5 8 -10 11 -10 2 0 4 5 4 10 0 6 -5 10 -11 10 -5 0
-7 -4 -4 -10z"/>
<path d="M5951 4807 c-40 -131 -51 -300 -30 -472 46 -377 305 -750 649 -933
223 -119 494 -167 724 -126 256 44 477 158 658 337 118 117 178 201 253 352
100 200 145 418 130 623 l-7 94 -26 -7 c-51 -12 -54 -22 -57 -181 -6 -302 -97
-522 -309 -742 -151 -157 -327 -266 -531 -329 -84 -25 -102 -27 -270 -27 -198
0 -266 12 -430 77 -160 63 -392 246 -399 314 -2 18 -18 49 -37 71 -79 93 -159
256 -201 410 -29 108 -36 339 -14 447 9 42 16 85 16 94 -1 19 -37 47 -73 56
-24 6 -27 3 -46 -58z"/>
<path d="M2315 4320 l-39 -40 31 -37 c42 -53 71 -54 116 -3 21 22 37 44 37 49
0 15 -70 71 -88 71 -10 0 -35 -18 -57 -40z"/>
<path d="M4986 3265 c-54 -19 -108 -64 -131 -111 -24 -49 -31 -140 -15 -189
29 -89 139 -165 238 -165 167 0 278 154 232 321 -13 48 -75 118 -124 140 -49
22 -144 24 -200 4z"/>
<path d="M3148 2826 c-21 -11 -45 -35 -55 -53 -13 -25 -20 -30 -31 -21 -8 7
-16 8 -20 2 -4 -5 -29 -42 -55 -82 -27 -39 -63 -82 -80 -94 -18 -12 -34 -23
-36 -25 -11 -8 -1 -106 13 -129 21 -31 71 -62 114 -70 71 -14 163 49 212 145
14 29 34 48 68 65 69 35 103 76 109 128 12 117 -130 197 -239 134z"/>
<path d="M6363 2611 c-98 -45 -99 -187 -1 -231 54 -25 62 -25 114 1 51 24 84
72 84 122 0 47 -47 103 -98 117 -48 13 -50 13 -99 -9z"/>
<path d="M7095 2240 c-6 -10 18 -75 36 -97 9 -10 17 -9 40 8 16 11 29 24 29
28 0 8 -80 71 -91 71 -4 0 -10 -4 -14 -10z"/>
<path d="M6994 2093 c4 -9 2 -19 -4 -23 -9 -5 -8 -19 0 -50 13 -50 24 -44 55
28 21 48 13 62 -34 62 -18 0 -22 -4 -17 -17z"/>
<path d="M6860 1969 c0 -6 9 -24 21 -40 l21 -30 30 30 c17 16 27 34 23 40 -8
14 -95 14 -95 0z"/>
<path d="M5722 2321 c-13 -36 -21 -38 -45 -11 -9 11 -23 20 -32 20 -17 0 -35
-30 -35 -60 0 -19 -4 -21 -27 -15 -56 15 -58 14 -56 -37 l3 -48 -39 0 c-50 0
-63 -27 -32 -66 24 -30 15 -51 -22 -56 -15 -2 -23 -11 -25 -28 -2 -21 4 -29
34 -43 l37 -18 -23 -23 c-13 -15 -20 -33 -18 -48 2 -19 10 -24 41 -26 40 -3
42 -7 27 -48 -15 -39 8 -63 45 -46 39 18 44 15 47 -30 2 -35 7 -44 25 -46 12
-2 30 6 43 20 18 19 22 20 30 8 5 -8 10 -20 10 -27 0 -11 30 -33 45 -33 3 0
16 11 29 25 23 25 24 25 55 8 32 -18 32 -18 52 6 10 13 19 34 19 47 0 22 3 23
46 17 l46 -6 -4 49 c-3 47 -2 49 24 49 29 1 58 21 58 40 0 7 -9 24 -20 38 -26
32 -26 33 10 46 17 5 33 17 36 26 8 19 -23 55 -46 55 -28 0 -30 11 -10 40 36
50 22 76 -37 72 -36 -3 -42 12 -22 50 9 16 8 24 -5 36 -13 13 -20 14 -43 3
-37 -17 -37 -17 -43 26 -6 48 -35 55 -70 18 l-24 -25 -10 32 c-8 25 -18 34
-37 36 -22 3 -29 -2 -37 -27z m93 -237 c53 -49 24 -133 -51 -148 -35 -8 -79
21 -95 61 -13 36 13 91 52 107 38 16 60 12 94 -20z"/>
</g>
</svg>
